<?xml version="1.0" encoding="utf-8"?>
<!-- Generator: Adobe Illustrator 16.0.0, SVG Export Plug-In . SVG Version: 6.00 Build 0)  -->
<!DOCTYPE svg PUBLIC "-//W3C//DTD SVG 1.1//EN" "http://www.w3.org/Graphics/SVG/1.1/DTD/svg11.dtd">
<svg version="1.1" id="Layer_1" xmlns="http://www.w3.org/2000/svg" xmlns:xlink="http://www.w3.org/1999/xlink" x="0px" y="0px"
	 width="996.938px" height="163.683px" viewBox="0 0 996.938 163.683" enable-background="new 0 0 996.938 163.683"
	 xml:space="preserve">
<g>
	<path fill="#414042" d="M96.05,18.079"/>
	<path fill="#414042" d="M36.864,91.303L13.029,48.075c-1.01,7.744-2.02,15.487-3.03,23.23c4.848,12.053,9.696,24.105,14.544,36.158
		l-13.18,32.572c-2.878,1.717-5.757,3.434-8.636,5.151c-0.909,2.322-1.818,4.646-2.727,6.969c0,0,18.18,0.101,27.27,0.151
		c4.04-5.959,8.08-14.342,12.12-20.301c8.585-5.757,17.169-11.514,25.754-17.271C55.718,106.924,36.864,91.303,36.864,91.303z"/>
	<path fill="#414042" d="M69.689,19.442c-4.949-2.239-9.898-4.478-14.847-6.717c-1.347-2.154-2.693-4.309-4.04-6.464
		c-2.155-1.212-4.309-2.424-6.464-3.636c-2.828,1.885-5.656,3.771-8.484,5.656c-1.145,4.276-2.289,8.551-3.434,12.827
		c5.909-0.909,17.726-2.727,17.726-2.727C56.66,18.735,63.175,19.089,69.689,19.442z"/>
	<path fill="#414042" d="M145.742,142.308c-2.071,1.363-4.141,2.727-6.211,4.091c-0.758,2.07-1.515,4.141-2.272,6.211
		c0,0,17.776,0.202,26.664,0.303c2.123-12.338,3.738-21.119,4.848-27.572c-1.752-3.699-3.505-7.399-5.257-11.098
		c-11.615,1.291-23.23,2.581-34.846,3.872c2.809,4.143,5.705,8.328,8.689,12.552C140.158,134.631,145.742,142.308,145.742,142.308z"
		/>
	<path fill="#414042" d="M101.049,25.351c-2.07-2.575-4.141-5.151-6.211-7.727c-6.935-2.575-13.871-5.151-20.806-7.726
		c-0.673-2.087-1.347-4.175-2.02-6.262C70.531,2.424,69.049,1.212,67.568,0c-1.953,0.741-3.905,1.481-5.858,2.222
		c-1.33,1.751-2.66,3.501-3.99,5.252c11.514,4.697,23.609,10.043,34.67,15.726c0,0,3.749,8.134,5.624,12.202
		c5.43,0.892,10.86,1.784,16.291,2.676c0.53,0.631,1.061,1.262,1.591,1.894c-0.083,0.208-0.166,0.416-0.251,0.625
		c-0.079,0.195-0.158,0.389-0.237,0.582l-3.704,1.849l2.69,2.777c-0.964,2.171-1.928,4.343-2.892,6.515
		c-2.784,3.18-5.567,6.359-8.351,9.538c-4.698-0.766-9.396-1.532-14.094-2.297l4.171,4.471c-3.211,0.783-6.423,1.567-9.634,2.351
		c-9.085-1.606-23.904-3.458-23.904-3.458l25.906,74.689c-3.131,2.272-6.262,4.545-9.393,6.817c-0.858,2.525-1.717,5.05-2.576,7.575
		c0,0,20.334,0.067,30.502,0.101c2.424-7.878,7.272-24.239,7.272-24.239l-1.717-17.979l55.512-7.012c0,0,8.038-9.061,12.057-13.591
		c-1.414,7.339-2.828,14.678-4.242,22.018c2.673,4.377,5.499,8.843,8.484,13.383c3.091,4.699,9.241,13.533,9.241,13.533
		c-2.929,2.071-5.857,4.142-8.787,6.212c-1.094,2.693-2.188,5.387-3.282,8.08c0,0,22.287,0.27,33.43,0.403
		c3.199-8.079,6.397-16.159,9.595-24.239c-0.572-18.18-1.145-33.33-1.717-51.51c3.131-0.101,6.262-0.202,9.393-0.303
		c-5.656-10.605-11.312-21.21-16.968-31.815c-17.103-9.157-34.205-18.314-51.308-27.472
		C141.079,20.166,121.064,22.758,101.049,25.351z"/>
	<path fill="#414042" d="M77.626,32.213c2.775-1.204,5.55-2.409,8.325-3.613c0.864,2.046,1.728,4.092,2.592,6.138
		C84.904,33.896,81.265,33.055,77.626,32.213z"/>
</g>
<g>
	<path fill="#3FB761" d="M337.367,111.786V55.841l-22.522,55.945h-7.427l-22.522-55.945v55.945h-17.011V31.882h23.839l19.407,48.278
		l19.407-48.278h23.96v79.904H337.367z"/>
	<path fill="#3FB761" d="M364.086,71.894c0-24.079,17.61-41.33,41.689-41.33c24.198,0,41.809,17.251,41.809,41.33
		s-17.61,41.33-41.809,41.33C381.696,113.224,364.086,95.973,364.086,71.894z M430.094,71.894c0-14.975-9.584-26.235-24.318-26.235
		c-14.735,0-24.199,11.261-24.199,26.235c0,14.855,9.464,26.235,24.199,26.235C420.51,98.129,430.094,86.749,430.094,71.894z"/>
	<path fill="#3FB761" d="M453.339,71.894c0-25.277,19.167-41.33,42.527-41.33c16.652,0,27.074,8.387,33.064,17.851l-14.136,7.667
		c-3.595-5.631-10.423-10.423-18.929-10.423c-14.495,0-25.037,11.142-25.037,26.235c0,15.095,10.542,26.235,25.037,26.235
		c7.068,0,13.777-3.114,17.012-6.109v-9.584h-21.084V67.581h38.095v30.668c-8.146,9.104-19.526,15.095-34.022,15.095
		C472.506,113.344,453.339,97.051,453.339,71.894z"/>
	<path fill="#3FB761" d="M541.032,79.92V31.882h17.251v47.439c0,11.141,6.469,18.808,18.809,18.808
		c12.339,0,18.688-7.667,18.688-18.808V31.882h17.371v47.919c0,19.886-11.74,33.423-36.059,33.423
		C552.772,113.224,541.032,99.566,541.032,79.92z"/>
	<path fill="#3FB761" d="M644.898,111.786v-64.93h-23.36V31.882h63.731v14.975h-23.24v64.93H644.898z"/>
	<path fill="#3FB761" d="M741.217,111.786l-4.911-13.537h-34.262l-5.032,13.537h-19.406l30.907-79.904h21.324l30.787,79.904H741.217
		z M719.175,48.893l-12.459,34.382h24.918L719.175,48.893z"/>
</g>
<g>
	<path fill="#414042" d="M770.395,71.894c0-24.558,17.85-41.33,40.491-41.33c12.698,0,22.282,5.631,29.11,14.137l-5.75,3.714
		c-5.031-6.948-13.776-11.621-23.36-11.621c-18.808,0-33.304,14.256-33.304,35.101c0,20.605,14.496,35.101,33.304,35.101
		c9.584,0,18.329-4.672,23.36-11.62l5.75,3.594c-7.067,8.745-16.412,14.256-29.11,14.256
		C788.244,113.224,770.395,96.452,770.395,71.894z"/>
	<path fill="#414042" d="M919.306,111.786V41.226l-29.11,70.561h-2.636l-29.23-70.561v70.561h-6.828V31.882h10.183l27.193,65.888
		l27.074-65.888h10.303v79.904H919.306z"/>
	<path fill="#414042" d="M939.315,100.525l4.433-5.151c5.151,5.99,13.537,11.62,24.918,11.62c16.412,0,21.084-9.104,21.084-15.933
		c0-23.48-47.919-11.261-47.919-39.174c0-13.058,11.74-21.324,26.235-21.324c11.979,0,20.845,4.193,27.074,11.262l-4.553,5.031
		c-5.75-6.948-13.896-10.063-22.881-10.063c-10.662,0-18.688,6.11-18.688,14.735c0,20.485,47.919,9.225,47.919,39.054
		c0,10.303-6.828,22.642-28.392,22.642C955.368,113.224,945.425,107.952,939.315,100.525z"/>
</g>
<g>
	<path fill="#3FB761" d="M267.483,144.063c0-6.448,4.237-11.654,11.007-11.654s11.008,5.206,11.008,11.654
		c0,6.447-4.237,11.697-11.008,11.697S267.483,150.511,267.483,144.063z M285.859,144.063c0-4.514-2.625-8.567-7.369-8.567
		c-4.744,0-7.415,4.054-7.415,8.567c0,4.56,2.671,8.612,7.415,8.612C283.234,152.676,285.859,148.623,285.859,144.063z"/>
	<path fill="#3FB761" d="M293.83,144.063c0-6.587,4.467-11.654,11.1-11.654c4.053,0,6.448,1.659,8.152,3.87l-2.302,2.118
		c-1.474-2.026-3.362-2.901-5.666-2.901c-4.744,0-7.691,3.638-7.691,8.567c0,4.928,2.948,8.612,7.691,8.612
		c2.303,0,4.191-0.922,5.666-2.902l2.302,2.118c-1.704,2.212-4.099,3.869-8.152,3.869
		C298.297,155.761,293.83,150.694,293.83,144.063z"/>
	<path fill="#3FB761" d="M317.919,155.208v-22.245h3.454v9.258h11.607v-9.258h3.454v22.245h-3.454v-9.947h-11.607v9.947H317.919z"/>
	<path fill="#3FB761" d="M342.055,144.063c0-6.448,4.237-11.654,11.007-11.654c6.77,0,11.007,5.206,11.007,11.654
		c0,6.447-4.237,11.697-11.007,11.697C346.292,155.761,342.055,150.511,342.055,144.063z M360.431,144.063
		c0-4.514-2.625-8.567-7.369-8.567c-4.744,0-7.415,4.054-7.415,8.567c0,4.56,2.671,8.612,7.415,8.612
		C357.806,152.676,360.431,148.623,360.431,144.063z"/>
	<path fill="#3FB761" d="M369.69,155.208v-22.245h12.251c3.915,0,6.264,2.349,6.264,5.711c0,2.672-1.704,4.467-3.592,5.066
		c2.257,0.553,4.053,2.901,4.053,5.436c0,3.591-2.395,6.032-6.494,6.032H369.69z M384.659,139.181c0-1.935-1.197-3.178-3.316-3.178
		h-8.198v6.264h8.198C383.508,142.267,384.659,140.931,384.659,139.181z M385.074,148.76c0-1.796-1.244-3.454-3.593-3.454h-8.336
		v6.863h8.336C383.692,152.169,385.074,150.879,385.074,148.76z"/>
	<path fill="#3FB761" d="M409.117,155.208v-2.532c-1.842,2.025-4.375,3.085-7.369,3.085c-3.776,0-7.783-2.532-7.783-7.368
		c0-4.976,4.007-7.323,7.783-7.323c3.04,0,5.573,0.967,7.369,3.04v-4.008c0-2.993-2.395-4.698-5.619-4.698
		c-2.671,0-4.836,0.968-6.817,3.087l-1.611-2.396c2.395-2.486,5.25-3.686,8.889-3.686c4.698,0,8.612,2.12,8.612,7.508v15.291
		H409.117z M409.117,150.511v-4.191c-1.335-1.843-3.685-2.763-6.125-2.763c-3.224,0-5.481,2.025-5.481,4.882
		c0,2.809,2.257,4.836,5.481,4.836C405.433,153.274,407.782,152.354,409.117,150.511z"/>
	<path fill="#3FB761" d="M431.365,155.208v-22.245h12.251c3.915,0,6.264,2.349,6.264,5.711c0,2.672-1.704,4.467-3.592,5.066
		c2.257,0.553,4.053,2.901,4.053,5.436c0,3.591-2.395,6.032-6.494,6.032H431.365z M446.334,139.181c0-1.935-1.197-3.178-3.316-3.178
		h-8.198v6.264h8.198C445.183,142.267,446.334,140.931,446.334,139.181z M446.749,148.76c0-1.796-1.244-3.454-3.593-3.454h-8.336
		v6.863h8.336C445.367,152.169,446.749,150.879,446.749,148.76z"/>
	<path fill="#3FB761" d="M470.792,155.208v-2.532c-1.843,2.025-4.376,3.085-7.369,3.085c-3.777,0-7.784-2.532-7.784-7.368
		c0-4.976,4.007-7.323,7.784-7.323c3.039,0,5.573,0.967,7.369,3.04v-4.008c0-2.993-2.395-4.698-5.619-4.698
		c-2.671,0-4.836,0.968-6.817,3.087l-1.611-2.396c2.395-2.486,5.25-3.686,8.889-3.686c4.698,0,8.612,2.12,8.612,7.508v15.291
		H470.792z M470.792,150.511v-4.191c-1.336-1.843-3.685-2.763-6.126-2.763c-3.224,0-5.48,2.025-5.48,4.882
		c0,2.809,2.256,4.836,5.48,4.836C467.107,153.274,469.456,152.354,470.792,150.511z"/>
	<path fill="#3FB761" d="M510.311,132.963v22.245h-29.154v-22.245h3.455v19.206h9.396v-19.206h3.454v19.206h9.396v-19.206H510.311z"
		/>
	<path fill="#3FB761" d="M515.933,144.063c0-6.448,4.604-11.654,10.961-11.654c6.725,0,10.685,5.252,10.685,11.931v0.874h-18.007
		c0.276,4.191,3.224,7.692,8.014,7.692c2.532,0,5.112-1.015,6.862-2.811l1.657,2.258c-2.21,2.211-5.204,3.407-8.843,3.407
		C520.676,155.761,515.933,151.018,515.933,144.063z M526.848,135.267c-4.744,0-7.093,4.007-7.276,7.414h14.6
		C534.125,139.365,531.914,135.267,526.848,135.267z"/>
	<path fill="#3FB761" d="M558.722,136.003h-12.113v19.205h-3.454v-22.245h15.567V136.003z"/>
	<path fill="#3FB761" d="M561.946,144.063c0-6.448,4.237-11.654,11.008-11.654s11.008,5.206,11.008,11.654
		c0,6.447-4.237,11.697-11.008,11.697S561.946,150.511,561.946,144.063z M580.323,144.063c0-4.514-2.626-8.567-7.369-8.567
		c-4.744,0-7.415,4.054-7.415,8.567c0,4.56,2.671,8.612,7.415,8.612C577.697,152.676,580.323,148.623,580.323,144.063z"/>
	<path fill="#3FB761" d="M601.466,155.208v-22.245h3.454v16.995l11.652-16.995h3.409v22.245h-3.454v-17.316l-11.745,17.316H601.466z
		"/>
	<path fill="#3FB761" d="M626.892,155.208v-22.245h3.454v9.258h11.606v-9.258h3.454v22.245h-3.454v-9.947h-11.606v9.947H626.892z"/>
	<path fill="#3FB761" d="M656.369,155.208v-19.205h-6.447v-3.04h16.396v3.04h-6.494v19.205H656.369z"/>
	<path fill="#3FB761" d="M669.543,144.063c0-6.448,4.605-11.654,10.962-11.654c6.725,0,10.685,5.252,10.685,11.931v0.874h-18.008
		c0.276,4.191,3.225,7.692,8.014,7.692c2.533,0,5.112-1.015,6.863-2.811l1.657,2.258c-2.21,2.211-5.204,3.407-8.843,3.407
		C674.286,155.761,669.543,151.018,669.543,144.063z M680.458,135.267c-4.743,0-7.093,4.007-7.276,7.414h14.601
		C687.735,139.365,685.525,135.267,680.458,135.267z"/>
	<path fill="#3FB761" d="M700.218,151.847v11.836h-3.454v-30.72h3.454v3.316c1.612-2.258,4.376-3.87,7.508-3.87
		c5.85,0,9.903,4.423,9.903,11.654c0,7.184-4.054,11.697-9.903,11.697C704.686,155.761,702.015,154.333,700.218,151.847z
		 M713.99,144.063c0-4.93-2.672-8.567-7.14-8.567c-2.718,0-5.436,1.612-6.633,3.546v10.041c1.197,1.935,3.915,3.593,6.633,3.593
		C711.318,152.676,713.99,148.991,713.99,144.063z"/>
	<path fill="#3FB761" d="M723.111,155.208v-22.245h3.454v9.258h11.606v-9.258h3.454v22.245h-3.454v-9.947h-11.606v9.947H723.111z"/>
	<path fill="#3FB761" d="M747.247,144.063c0-6.448,4.604-11.654,10.961-11.654c6.725,0,10.686,5.252,10.686,11.931v0.874h-18.008
		c0.276,4.191,3.224,7.692,8.014,7.692c2.533,0,5.112-1.015,6.862-2.811l1.658,2.258c-2.211,2.211-5.205,3.407-8.844,3.407
		C751.99,155.761,747.247,151.018,747.247,144.063z M758.162,135.267c-4.743,0-7.093,4.007-7.276,7.414h14.6
		C765.439,139.365,763.229,135.267,758.162,135.267z"/>
	<path fill="#3FB761" d="M778.521,155.208v-19.205h-6.448v-3.04h16.396v3.04h-6.495v19.205H778.521z"/>
	<path fill="#3FB761" d="M790.912,145.582v-3.039h11.053v3.039H790.912z"/>
	<path fill="#3FB761" d="M826.055,155.208v-17.455l-7.232,17.455h-1.289l-7.277-17.455v17.455h-3.454v-22.245h4.56l6.816,16.489
		l6.725-16.489h4.606v22.245H826.055z"/>
	<path fill="#3FB761" d="M850.327,155.208v-2.532c-1.842,2.025-4.375,3.085-7.368,3.085c-3.776,0-7.784-2.532-7.784-7.368
		c0-4.976,4.008-7.323,7.784-7.323c3.04,0,5.573,0.967,7.368,3.04v-4.008c0-2.993-2.395-4.698-5.618-4.698
		c-2.672,0-4.837,0.968-6.816,3.087l-1.612-2.396c2.395-2.486,5.251-3.686,8.89-3.686c4.697,0,8.612,2.12,8.612,7.508v15.291
		H850.327z M850.327,150.511v-4.191c-1.335-1.843-3.684-2.763-6.125-2.763c-3.224,0-5.48,2.025-5.48,4.882
		c0,2.809,2.257,4.836,5.48,4.836C846.644,153.274,848.992,152.354,850.327,150.511z"/>
	<path fill="#3FB761" d="M876.26,136.003h-12.113v19.205h-3.454v-22.245h15.567V136.003z"/>
	<path fill="#3FB761" d="M894.685,155.208v-2.532c-1.843,2.025-4.375,3.085-7.369,3.085c-3.776,0-7.783-2.532-7.783-7.368
		c0-4.976,4.007-7.323,7.783-7.323c3.04,0,5.573,0.967,7.369,3.04v-4.008c0-2.993-2.396-4.698-5.619-4.698
		c-2.671,0-4.836,0.968-6.816,3.087l-1.612-2.396c2.396-2.486,5.251-3.686,8.89-3.686c4.698,0,8.613,2.12,8.613,7.508v15.291
		H894.685z M894.685,150.511v-4.191c-1.336-1.843-3.685-2.763-6.126-2.763c-3.224,0-5.48,2.025-5.48,4.882
		c0,2.809,2.257,4.836,5.48,4.836C891,153.274,893.349,152.354,894.685,150.511z"/>
	<path fill="#3FB761" d="M902.884,152.123l1.705-2.211c2.071,1.979,5.02,2.994,8.335,2.994c3.961,0,6.541-1.521,6.541-3.87
		c0-2.763-3.086-3.684-7.001-3.684h-4.975v-2.81h4.975c3.684,0,6.586-1.197,6.586-3.73c0-2.119-2.81-3.546-6.494-3.546
		c-3.131,0-5.572,0.92-7.461,2.854l-1.797-2.118c2.073-2.118,5.066-3.547,9.12-3.547c5.987-0.047,10.225,2.165,10.225,5.941
		c0,3.316-3.362,5.112-5.987,5.436c2.578,0.184,6.447,1.749,6.447,5.435c0,3.73-3.776,6.493-10.179,6.493
		C908.457,155.761,905.095,154.333,902.884,152.123z"/>
	<path fill="#3FB761" d="M928.724,155.208v-22.245h3.454v16.995l11.652-16.995h3.408v22.245h-3.454v-17.316l-11.745,17.316H928.724z
		"/>
	<path fill="#3FB761" d="M954.148,155.208v-22.245h3.454v9.258h11.606v-9.258h3.454v22.245h-3.454v-9.947h-11.606v9.947H954.148z"/>
	<path fill="#3FB761" d="M993.482,155.208v-2.532c-1.842,2.025-4.375,3.085-7.369,3.085c-3.775,0-7.783-2.532-7.783-7.368
		c0-4.976,4.008-7.323,7.783-7.323c3.041,0,5.573,0.967,7.369,3.04v-4.008c0-2.993-2.395-4.698-5.619-4.698
		c-2.671,0-4.836,0.968-6.816,3.087l-1.611-2.396c2.395-2.486,5.25-3.686,8.889-3.686c4.698,0,8.613,2.12,8.613,7.508v15.291
		H993.482z M993.482,150.511v-4.191c-1.336-1.843-3.684-2.763-6.125-2.763c-3.225,0-5.48,2.025-5.48,4.882
		c0,2.809,2.256,4.836,5.48,4.836C989.799,153.274,992.146,152.354,993.482,150.511z"/>
</g>
</svg>
