<?xml version="1.0" encoding="utf-8"?>
<!-- Generator: Adobe Illustrator 16.0.0, SVG Export Plug-In . SVG Version: 6.00 Build 0)  -->
<!DOCTYPE svg PUBLIC "-//W3C//DTD SVG 1.1//EN" "http://www.w3.org/Graphics/SVG/1.1/DTD/svg11.dtd">
<svg version="1.1" id="Слой_1" xmlns="http://www.w3.org/2000/svg" xmlns:xlink="http://www.w3.org/1999/xlink" x="0px" y="0px"
	 width="100px" height="90.607px" viewBox="175.745 159.27 100 90.607" enable-background="new 175.745 159.27 100 90.607"
	 xml:space="preserve">
<g>
	<g>
		<path d="M269.371,240.97h-0.116l-2.148-7.545c-0.486-1.758-0.977-1.953-2.049-1.953h-1.953l3.807,11.914
			c0.195,0.693,0.586,0.889,1.283,0.889c-0.402,1.563-1.479,2.822-3.128,2.822c-0.294,0-0.589,0-0.89-0.088
			c-0.096,0.283-0.096,0.674-0.096,0.977c0,1.064,0.816,1.758,2.049,1.758c2.734,0,4.086-3.291,4.883-5.469l4.732-12.803h-3.07
			L269.371,240.97z"/>
		<path d="M183.682,241.541c-2.93,0-4.248-2.061-4.248-5.078c0-3.088,1.074-6.162,4.443-6.162c0.948,0,1.953,0.195,3.076,1.084
			c0.825-0.378,1.025-0.781,1.025-1.367c0-1.961-2.783-2.547-4.248-2.547c-5.42,0-7.985,3.914-7.985,9.188
			c0,4.434,2.361,7.813,7.012,7.813c1.901,0,3.854-0.548,5.368-1.758l-0.977-2.086C186.067,241.15,184.946,241.541,183.682,241.541z
			"/>
		<path d="M194.961,231.277c-3.809,0-6.25,2.93-6.25,6.836c0,3.818,2.004,6.357,6.152,6.357c3.857,0,6.299-2.93,6.299-6.836
			C201.162,233.836,199.16,231.277,194.961,231.277z M194.912,242.214c-2.002,0-2.686-2.236-2.686-4.297
			c0-2.041,0.684-4.297,2.734-4.297c2.002,0,2.637,2.148,2.637,4.297C197.598,239.871,196.963,242.214,194.912,242.214z"/>
		<path d="M221.321,236.369c0-2.531-1.245-4.896-4.192-4.896c-1.465,0-2.711,0.781-3.711,2.451
			c-0.781-1.865-2.099-2.451-3.516-2.451c-1.27,0-2.68,0.586-3.613,2.061c-0.146-1.475-0.977-1.982-1.953-1.982
			c-0.586,0-1.122,0.117-1.708,0.615c0.243,0.391,0.586,1.172,0.634,2.554v9.556h3.37v-8.311c0.536-1.172,1.367-1.65,2.099-1.65
			c1.026,0,1.855,0.781,1.855,2.627v7.334h3.37v-8.311c0.586-1.172,1.317-1.65,2.099-1.65c1.074,0,1.905,0.674,1.905,2.627v4.917
			c0,1.428,0.098,2.505,1.821,2.505c0.718,0,1.449-0.195,1.84-0.391c-0.195-0.479-0.293-1.455-0.293-2.344L221.321,236.369z"/>
		<path d="M244.45,231.277c-1.72,0-3.125,0.74-4.129,2.098c-0.249-1.303-1.055-1.824-1.926-1.824c-0.586,0-1.146,0.117-1.668,0.615
			c0.195,0.391,0.586,1.172,0.586,2.556V247.4c0,1.367,0.105,2.477,1.834,2.477c0.705,0,1.396-0.24,1.807-0.422
			c-0.215-0.492-0.32-1.398-0.32-2.357v-3.32c1.082,0.498,2.059,0.693,3.151,0.693c3.009,0,5.442-2.061,5.442-6.748
			C249.228,234.314,247.966,231.277,244.45,231.277z M242.897,241.857c-0.596,0-1.377-0.121-2.264-0.465v-5.623
			c0.691-0.977,1.668-1.758,2.812-1.758c1.786,0,2.267,1.953,2.267,3.906C245.712,240.173,244.845,241.857,242.897,241.857z"/>
		<path d="M229.855,231.277c-4.278,0-6.329,2.93-6.329,7.031c0,3.125,1.513,6.162,6.201,6.162c1.922,0,4.07-0.693,4.852-1.558
			l-0.676-1.87c-0.977,0.391-2.148,0.781-3.32,0.781c-1.739,0-3.426-0.674-3.426-3.32h7.617c0.301-0.781,0.421-1.415,0.421-2.236
			C235.196,233.425,233.317,231.277,229.855,231.277z M231.957,236.447l-4.8,0.016c0.166-1.953,1.172-2.842,2.645-2.842
			c1.457,0,2.238,0.977,2.238,2.159C232.04,235.964,232.04,236.202,231.957,236.447z"/>
		<path d="M261.347,236.202c0-3.255-1.477-4.925-5.275-4.925c-2.742,0-4.59,0.977-4.59,2.451c0,0.479,0.198,0.869,0.62,1.26
			c0.837-0.586,2.492-1.064,3.774-1.064c1.172,0,2.237,0.331,2.237,1.846v1.084c-0.646-0.187-1.367-0.235-2.042-0.235
			c-2.665,0-5.486,1.017-5.486,4.337c0,2.148,1.482,3.516,4.021,3.516c1.554,0,3.116-0.693,3.897-1.865
			c0.194,1.279,0.78,1.758,1.952,1.758c0.596,0,1.151-0.146,1.572-0.479c-0.391-0.586-0.68-1.479-0.68-2.622v-5.061H261.347z
			 M258.113,240.335c-0.479,0.814-1.367,1.596-2.628,1.596c-0.78,0-1.486-0.303-1.486-1.367c0-1.531,1.292-1.953,2.658-1.953
			c0.479,0,1.056,0.088,1.456,0.195V240.335L258.113,240.335z"/>
	</g>
	<g>
		<path fill="#E40A49" d="M231.979,196.054c0.621-1.074,0.948-2.246,0.948-3.568c0-1.27-0.327-2.486-0.952-3.516l7.683-7.687
			c0.781-0.757,0.781-1.981,0-2.71c-0.726-0.736-1.953-0.736-2.714,0l-7.638,7.675c-1.066-0.599-2.238-0.937-3.561-0.937
			c-3.973,0-7.19,3.223-7.19,7.174c0,3.973,3.217,7.188,7.19,7.188c1.322,0,2.494-0.337,3.561-0.938l7.638,7.746
			c0.37,0.316,0.866,0.48,1.347,0.48c0.496,0,0.977-0.164,1.367-0.48c0.781-0.781,0.781-1.994,0-2.766L231.979,196.054z
			 M225.745,195.859c-1.828,0-3.343-1.518-3.343-3.373c0-1.812,1.515-3.32,3.343-3.32c1.803,0,3.365,1.509,3.365,3.32
			C229.11,194.341,227.548,195.859,225.745,195.859z"/>
		<rect x="221.866" y="159.27" fill="#E40A49" width="7.74" height="3.822"/>
		<path fill="#E40A49" d="M235.784,212.341l1.92,4.191c0.977-0.48,1.953-1.066,2.84-1.652l-2.645-3.711
			C237.224,211.56,236.532,211.993,235.784,212.341z"/>
		<path fill="#E40A49" d="M234.489,213.003c-0.736,0.314-1.473,0.6-2.258,0.795l1.176,4.402c0.977-0.301,2.059-0.691,3.035-1.082
			L234.489,213.003z"/>
		<path fill="#E40A49" d="M239.071,210.283l2.645,3.768c0.871-0.643,1.652-1.318,2.434-2.1l-3.215-3.23
			C240.349,209.306,239.763,209.802,239.071,210.283z"/>
		<path fill="#E40A49" d="M251.481,200.156l-4.402-1.184c-0.285,0.793-0.57,1.522-0.871,2.303l4.104,1.908
			C250.79,202.207,251.181,201.177,251.481,200.156z"/>
		<path fill="#E40A49" d="M230.778,214.189c-0.781,0.195-1.563,0.301-2.344,0.391l0.391,4.598c1.066-0.144,2.148-0.311,3.153-0.586
			L230.778,214.189z"/>
		<path fill="#E40A49" d="M242.001,207.744l3.23,3.23c0.676-0.781,1.399-1.668,2.043-2.539l-3.711-2.539
			C243.083,206.482,242.519,207.158,242.001,207.744z"/>
		<path fill="#E40A49" d="M252.353,195.566l-4.492-0.391c-0.09,0.804-0.285,1.607-0.435,2.389l4.446,1.172
			C252.067,197.714,252.263,196.64,252.353,195.566z"/>
		<path fill="#E40A49" d="M249.724,204.498l-4.102-1.953c-0.391,0.736-0.781,1.465-1.277,2.148l3.771,2.57
			C248.747,206.376,249.228,205.474,249.724,204.498z"/>
		<path fill="#E40A49" d="M247.966,191.269c0,0.436,0.057,0.826,0.057,1.217c0,0.443-0.057,0.834-0.057,1.233l4.582,0.417
			c0-0.535,0-1.084,0-1.65c0-0.533,0-1.074,0-1.607L247.966,191.269z"/>
		<path fill="#E40A49" d="M247.426,187.46c0.149,0.781,0.345,1.563,0.435,2.389l4.492-0.391c-0.09-1.074-0.285-2.148-0.48-3.202
			L247.426,187.46z"/>
		<path fill="#E40A49" d="M246.208,183.75c0.309,0.729,0.586,1.51,0.871,2.291l4.402-1.172c-0.301-1.021-0.691-2.051-1.165-3.027
			L246.208,183.75z"/>
		<path fill="#E40A49" d="M224.518,170.273c0.424-0.008,0.814-0.053,1.228-0.053c0.439,0,0.826,0.045,1.217,0.053l0.391-4.545
			c-0.48-0.033-1.073-0.045-1.607-0.045c-0.559,0-1.097,0.012-1.633,0.045L224.518,170.273z"/>
		<path fill="#E40A49" d="M244.345,180.332c0.496,0.684,0.887,1.4,1.277,2.118l4.102-1.922c-0.496-0.977-0.977-1.908-1.599-2.787
			L244.345,180.332z"/>
		<path fill="#E40A49" d="M228.435,170.416c0.781,0.098,1.563,0.242,2.344,0.391l1.2-4.395c-1.005-0.24-2.087-0.436-3.153-0.533
			L228.435,170.416z"/>
		<path fill="#E40A49" d="M235.784,172.662c0.748,0.346,1.439,0.781,2.115,1.225l2.645-3.764c-0.887-0.586-1.863-1.119-2.84-1.607
			L235.784,172.662z"/>
		<path fill="#E40A49" d="M242.001,177.304c0.518,0.586,1.082,1.217,1.563,1.855l3.711-2.61c-0.643-0.861-1.367-1.687-2.043-2.468
			L242.001,177.304z"/>
		<path fill="#E40A49" d="M232.233,171.197c0.783,0.248,1.52,0.52,2.256,0.834l1.953-4.117c-0.977-0.428-2.059-0.818-3.035-1.111
			L232.233,171.197z"/>
		<path fill="#E40A49" d="M239.071,174.712c0.691,0.488,1.277,0.997,1.863,1.563l3.215-3.223c-0.781-0.729-1.563-1.454-2.434-2.096
			L239.071,174.712z"/>
		<path fill="#E40A49" d="M200.039,184.869l4.395,1.172c0.245-0.781,0.538-1.563,0.831-2.291l-4.103-1.908
			C200.723,182.818,200.332,183.847,200.039,184.869z"/>
		<path fill="#E40A49" d="M210.977,214.88c0.879,0.586,1.808,1.172,2.784,1.652l1.953-4.191c-0.733-0.345-1.465-0.781-2.148-1.172
			L210.977,214.88z"/>
		<path fill="#E40A49" d="M207.315,211.951c0.781,0.781,1.61,1.457,2.489,2.107l2.589-3.775c-0.636-0.48-1.27-0.977-1.855-1.563
			L207.315,211.951z"/>
		<path fill="#E40A49" d="M204.19,208.435c0.671,0.871,1.367,1.758,2.099,2.539l3.223-3.23c-0.536-0.586-1.074-1.262-1.563-1.848
			L204.19,208.435z"/>
		<path fill="#E40A49" d="M201.749,204.498c0.488,0.977,1.024,1.879,1.626,2.766l3.745-2.57c-0.44-0.684-0.878-1.412-1.222-2.148
			L201.749,204.498z"/>
		<path fill="#E40A49" d="M219.277,213.798c-0.781-0.195-1.532-0.48-2.294-0.791l-1.905,4.111c0.977,0.391,2.003,0.781,3.027,1.082
			L219.277,213.798z"/>
		<path fill="#E40A49" d="M223.086,214.58c-0.823-0.09-1.61-0.195-2.392-0.391l-1.172,4.402c1.024,0.28,2.099,0.444,3.173,0.586
			L223.086,214.58z"/>
		<path fill="#E40A49" d="M227.353,219.267l-0.391-4.492c-0.391,0-0.777,0-1.217,0c-0.413,0-0.804,0-1.228,0l-0.405,4.492
			c0.536,0,1.074,0.084,1.633,0.084C226.279,219.351,226.872,219.267,227.353,219.267z"/>
		<path fill="#E40A49" d="M198.916,192.486c0,0.571,0.044,1.121,0.049,1.655l4.542-0.418c0-0.403-0.037-0.794-0.037-1.237
			c0-0.391,0.037-0.781,0.037-1.217l-4.542-0.391C198.96,191.412,198.916,191.953,198.916,192.486z"/>
		<path fill="#E40A49" d="M220.694,170.806c0.781-0.148,1.567-0.293,2.392-0.391l-0.391-4.537c-1.074,0.098-2.148,0.293-3.173,0.533
			L220.694,170.806z"/>
		<path fill="#E40A49" d="M207.315,173.052l3.223,3.223c0.586-0.57,1.22-1.074,1.855-1.565l-2.589-3.753
			C208.926,171.598,208.097,172.324,207.315,173.052z"/>
		<path fill="#E40A49" d="M210.977,170.123l2.589,3.764c0.684-0.445,1.415-0.879,2.148-1.225l-1.953-4.146
			C212.784,169.003,211.855,169.537,210.977,170.123z"/>
		<path fill="#E40A49" d="M215.078,167.914l1.905,4.117c0.756-0.318,1.513-0.586,2.294-0.834l-1.172-4.395
			C217.081,167.095,216.055,167.486,215.078,167.914z"/>
		<path fill="#E40A49" d="M204.19,176.546l3.759,2.614c0.488-0.64,1.021-1.27,1.563-1.855l-3.223-3.223
			C205.558,174.863,204.858,175.689,204.19,176.546z"/>
		<path fill="#E40A49" d="M201.749,180.527l4.149,1.922c0.343-0.718,0.781-1.434,1.222-2.118l-3.753-2.593
			C202.773,178.619,202.237,179.55,201.749,180.527z"/>
		<path fill="#E40A49" d="M205.265,201.275c-0.293-0.781-0.586-1.51-0.831-2.303l-4.395,1.184c0.293,1.021,0.684,2.051,1.123,3.027
			L205.265,201.275z"/>
		<path fill="#E40A49" d="M203.652,195.175l-4.541,0.391c0.098,1.074,0.293,2.148,0.537,3.17l4.42-1.172
			C203.897,196.783,203.75,195.984,203.652,195.175z"/>
		<path fill="#E40A49" d="M199.111,189.458l4.541,0.391c0.098-0.826,0.245-1.607,0.416-2.389l-4.42-1.204
			C199.404,187.31,199.209,188.384,199.111,189.458z"/>
	</g>
</g>
</svg>
