<?xml version="1.0" encoding="utf-8"?>
<!-- Generator: Adobe Illustrator 21.0.0, SVG Export Plug-In . SVG Version: 6.00 Build 0)  -->
<svg version="1.1" id="Слой_1" xmlns="http://www.w3.org/2000/svg" xmlns:xlink="http://www.w3.org/1999/xlink" x="0px" y="0px"
	 viewBox="0 0 150 25" style="enable-background:new 0 0 150 25;" xml:space="preserve">
<style type="text/css">
	.st0{fill:#414042;}
	.st1{fill:#FFFFFF;}
</style>
<path class="st0" d="M16,3.2"/>
<path class="st1" d="M6.3,15.2L2.4,8.1c-0.1,1.3-0.3,2.6-0.5,3.8c0.8,2,1.6,3.9,2.4,5.9l-2.1,5.4c-0.5,0.3-0.9,0.6-1.4,0.8
	c-0.1,0.4-0.3,0.7-0.4,1.1c0,0,3,0,4.5,0c0.7-1,1.3-2.3,2-3.2c1.4-0.9,2.8-1.9,4.2-2.8C9.4,17.8,6.3,15.2,6.3,15.2z"/>
<path class="st1" d="M11.7,3.5c-0.8-0.4-1.6-0.7-2.4-1.1C9.1,2,8.9,1.7,8.6,1.3c-0.3-0.2-0.7-0.4-1-0.6C7.1,1,6.6,1.3,6.2,1.6
	C6,2.3,5.8,3,5.6,3.7c1-0.1,2.9-0.4,2.9-0.4C9.6,3.3,10.6,3.4,11.7,3.5z"/>
<path class="st1" d="M24.1,23.6c-0.3,0.2-0.7,0.4-1,0.7c-0.1,0.3-0.2,0.5-0.4,0.9c0,0,2.9,0,4.4,0c0.3-2,0.6-3.3,0.8-4.3
	c-0.3-0.6-0.6-1.2-0.9-1.8c-1.9,0.2-3.8,0.4-5.7,0.6c0.5,0.7,0.9,1.4,1.4,2.1C23.2,22.3,24.1,23.6,24.1,23.6z"/>
<path class="st1" d="M16.8,4.4c-0.3-0.4-0.7-0.8-1-1.3c-1.1-0.4-2.3-0.8-3.4-1.3c-0.1-0.3-0.2-0.7-0.3-1c-0.2-0.2-0.5-0.4-0.7-0.6
	c-0.3,0.1-0.6,0.2-1,0.4C10.2,0.9,10,1.2,9.7,1.5c1.9,0.8,3.9,1.6,5.7,2.6c0,0,0.6,1.3,0.9,2c0.9,0.1,1.8,0.3,2.7,0.4
	c0.1,0.1,0.2,0.2,0.3,0.3v0.1V7l-0.6,0.3l0.4,0.5c-0.2,0.4-0.3,0.7-0.5,1.1c-0.5,0.5-0.9,1-1.4,1.6c-0.8-0.1-1.5-0.3-2.3-0.4
	l0.7,0.7c-0.5,0.1-1.1,0.3-1.6,0.4c-1.5-0.3-3.9-0.6-3.9-0.6l4.2,12.2c-0.5,0.4-1,0.7-1.5,1.1c-0.1,0.4-0.3,0.8-0.4,1.2
	c0,0,3.3,0,5,0c0.4-1.3,1.2-3.9,1.2-3.9l-0.3-2.9l9.1-1.1c0,0,1.3-1.5,2-2.2c-0.2,1.2-0.5,2.4-0.7,3.6c0.4,0.7,0.9,1.4,1.4,2.2
	c0.5,0.8,1.5,2.2,1.5,2.2c-0.5,0.3-1,0.7-1.4,1c-0.2,0.4-0.4,0.8-0.5,1.2c0,0,3.6,0,5.5,0c0.5-1.3,1-2.5,1.6-3.8
	c-0.1-3-0.2-5.5-0.3-8.4c0.5,0,1,0,1.5,0c-0.9-1.7-1.9-3.5-2.8-5.2c-2.9-1.6-5.7-3.1-8.5-4.6C23.4,3.6,20.1,4,16.8,4.4z"/>
<path class="st1" d="M13,5.6c0.5-0.2,0.9-0.4,1.4-0.6c0.1,0.3,0.3,0.7,0.4,1C14.2,5.8,13.6,5.7,13,5.6z"/>
<g>
	<path class="st1" d="M50.1,18.4l-2.9-9.5h-0.1c0.1,1.9,0.2,3.2,0.2,3.9v5.6H45V6.3h3.5l2.9,9.3h0l3-9.3H58v12.1h-2.4v-5.7
		c0-0.3,0-0.6,0-0.9s0-1.3,0.1-2.8h-0.1l-3.1,9.5H50.1z"/>
	<path class="st1" d="M69.2,13.8c0,1.5-0.4,2.7-1.2,3.5s-1.9,1.3-3.3,1.3c-0.9,0-1.7-0.2-2.4-0.6c-0.7-0.4-1.2-0.9-1.6-1.7
		c-0.4-0.7-0.5-1.6-0.5-2.6c0-1.5,0.4-2.7,1.2-3.5C62.2,9.4,63.3,9,64.8,9c0.9,0,1.7,0.2,2.4,0.6s1.2,0.9,1.6,1.7
		S69.2,12.8,69.2,13.8z M62.8,13.8c0,0.9,0.2,1.6,0.5,2.1c0.3,0.5,0.8,0.7,1.5,0.7c0.7,0,1.2-0.2,1.5-0.7c0.3-0.5,0.4-1.2,0.4-2.1
		c0-0.9-0.1-1.6-0.4-2.1c-0.3-0.5-0.8-0.7-1.5-0.7c-0.7,0-1.2,0.2-1.5,0.7C63,12.1,62.8,12.8,62.8,13.8z"/>
	<path class="st1" d="M79.4,9.1v1.3l-1.4,0.4c0.3,0.4,0.4,0.9,0.4,1.4c0,1-0.3,1.8-1,2.3c-0.7,0.6-1.7,0.8-2.9,0.8l-0.5,0l-0.4,0
		c-0.3,0.2-0.4,0.4-0.4,0.7c0,0.4,0.5,0.5,1.4,0.5h1.6c1,0,1.8,0.2,2.3,0.7c0.5,0.4,0.8,1.1,0.8,1.9c0,1.1-0.5,1.9-1.4,2.5
		c-0.9,0.6-2.2,0.9-3.9,0.9c-1.3,0-2.3-0.2-3-0.7s-1-1.1-1-1.9c0-0.6,0.2-1,0.5-1.4c0.3-0.4,0.9-0.6,1.5-0.8
		c-0.3-0.1-0.5-0.3-0.7-0.5c-0.2-0.3-0.3-0.5-0.3-0.8c0-0.4,0.1-0.6,0.3-0.9c0.2-0.2,0.5-0.5,0.9-0.7c-0.5-0.2-0.9-0.5-1.2-1
		s-0.4-1-0.4-1.6c0-1,0.3-1.8,1-2.3C72.4,9.2,73.3,9,74.5,9c0.3,0,0.6,0,0.9,0.1c0.4,0,0.6,0.1,0.7,0.1H79.4z M72.2,19.7
		c0,0.3,0.2,0.6,0.5,0.8c0.3,0.2,0.8,0.3,1.4,0.3c0.9,0,1.6-0.1,2.1-0.4c0.5-0.2,0.8-0.6,0.8-1c0-0.3-0.2-0.6-0.5-0.7
		c-0.3-0.1-0.8-0.2-1.4-0.2h-1.3c-0.5,0-0.9,0.1-1.2,0.3C72.4,19.1,72.2,19.4,72.2,19.7z M73.1,12.2c0,0.5,0.1,0.9,0.3,1.2
		c0.2,0.3,0.6,0.4,1,0.4c0.5,0,0.8-0.1,1-0.4c0.2-0.3,0.3-0.7,0.3-1.2c0-1.1-0.5-1.7-1.4-1.7C73.6,10.5,73.1,11.1,73.1,12.2z"/>
	<path class="st1" d="M87.5,18.4l-0.3-1.2H87c-0.3,0.4-0.7,0.8-1.2,1s-1.1,0.4-1.7,0.4c-1.1,0-1.9-0.3-2.5-0.9
		c-0.6-0.6-0.8-1.4-0.8-2.5v-6h2.5v5.4c0,0.7,0.1,1.2,0.4,1.5c0.2,0.3,0.6,0.5,1.1,0.5c0.7,0,1.2-0.2,1.5-0.7
		c0.3-0.5,0.5-1.3,0.5-2.3V9.1h2.5v9.3H87.5z"/>
	<path class="st1" d="M96,16.6c0.4,0,1-0.1,1.6-0.3v1.9c-0.6,0.3-1.4,0.4-2.3,0.4c-1,0-1.7-0.3-2.2-0.8s-0.7-1.3-0.7-2.3V11h-1.2V10
		l1.4-0.8l0.7-2h1.6v2h2.6V11h-2.6v4.5c0,0.4,0.1,0.6,0.3,0.8C95.4,16.5,95.6,16.6,96,16.6z"/>
	<path class="st1" d="M105.3,18.4l-0.5-1.3h-0.1c-0.4,0.5-0.9,0.9-1.3,1.1c-0.5,0.2-1,0.3-1.8,0.3c-0.9,0-1.6-0.3-2.1-0.8
		c-0.5-0.5-0.8-1.2-0.8-2.2c0-1,0.3-1.7,1-2.2s1.7-0.7,3.1-0.8l1.6,0v-0.4c0-0.9-0.5-1.4-1.4-1.4c-0.7,0-1.6,0.2-2.6,0.7l-0.8-1.7
		c1.1-0.6,2.2-0.8,3.5-0.8c1.2,0,2.2,0.3,2.9,0.8c0.7,0.5,1,1.4,1,2.5v6.2H105.3z M104.6,14.1l-1,0c-0.7,0-1.3,0.2-1.6,0.4
		c-0.4,0.2-0.5,0.6-0.5,1.1c0,0.7,0.4,1.1,1.2,1.1c0.6,0,1.1-0.2,1.4-0.5c0.4-0.3,0.5-0.8,0.5-1.3V14.1z"/>
	<path class="st1" d="M109.6,17.5c0-0.4,0.1-0.7,0.3-0.8c0.2-0.2,0.4-0.3,0.7-0.3c0.3,0,0.6,0.1,0.8,0.3c0.2,0.2,0.3,0.5,0.3,0.8
		c0,0.4-0.1,0.6-0.3,0.8c-0.2,0.2-0.4,0.3-0.7,0.3c-0.3,0-0.5-0.1-0.7-0.3C109.7,18.2,109.6,17.9,109.6,17.5z"/>
	<path class="st1" d="M119.7,6.9c-1.5,0-2.7,0.5-3.6,1.5c-0.9,1-1.3,2.3-1.3,4c0,1.7,0.4,3.1,1.2,4c0.8,1,2,1.4,3.5,1.4
		c1,0,1.9-0.1,2.8-0.4v0.7c-0.8,0.3-1.8,0.4-3,0.4c-1.7,0-3-0.5-4-1.6c-1-1.1-1.5-2.6-1.5-4.6c0-1.2,0.2-2.3,0.7-3.3
		c0.5-0.9,1.1-1.7,2-2.2s1.9-0.8,3.1-0.8c1.2,0,2.2,0.2,3.2,0.7l-0.3,0.8C121.6,7.1,120.7,6.9,119.7,6.9z"/>
	<path class="st1" d="M130.4,18.4l-4.5-11.2h-0.1c0,0.7,0.1,1.4,0.1,2.1v9.1h-0.8V6.3h1.3l4.3,10.7h0L135,6.3h1.3v12.1h-0.9V9.2
		c0-0.6,0-1.3,0.1-2h-0.1L131,18.4H130.4z"/>
	<path class="st1" d="M146.4,15.3c0,1-0.4,1.8-1.1,2.4s-1.7,0.9-3,0.9c-1.5,0-2.6-0.2-3.4-0.5v-0.8c0.9,0.4,2,0.6,3.3,0.6
		c1,0,1.8-0.2,2.4-0.7c0.6-0.5,0.9-1.1,0.9-1.8c0-0.5-0.1-0.8-0.3-1.1s-0.5-0.6-0.9-0.8c-0.4-0.2-1.1-0.5-1.9-0.8
		c-1.2-0.4-2.1-0.9-2.6-1.4c-0.5-0.5-0.7-1.2-0.7-2c0-0.9,0.4-1.6,1.1-2.2c0.7-0.6,1.6-0.9,2.7-0.9c1.1,0,2.2,0.2,3.2,0.6l-0.3,0.7
		c-1-0.4-2-0.6-2.9-0.6c-0.9,0-1.6,0.2-2.1,0.6s-0.8,1-0.8,1.7c0,0.4,0.1,0.8,0.2,1.1c0.2,0.3,0.4,0.5,0.8,0.8
		c0.4,0.2,1,0.5,1.9,0.8c0.9,0.3,1.7,0.6,2.1,0.9c0.5,0.3,0.8,0.7,1,1C146.3,14.3,146.4,14.7,146.4,15.3z"/>
</g>
</svg>
