<svg xmlns="http://www.w3.org/2000/svg" width="20" height="20" viewBox="0 0 438.542 438.542"><g fill="#FFF"><path d="M414.41 60.676c-16.084-16.083-35.446-24.125-58.102-24.125h-91.357c-2.478 0-4.429.614-5.853 1.855-1.431 1.237-2.382 3.093-2.854 5.568-.479 2.474-.76 4.709-.853 6.707-.096 1.997-.051 4.521.144 7.565.186 3.046.281 4.949.281 5.713.571 1.524.767 2.81.571 3.855-.191 1.043.476 1.903 1.998 2.568 1.52.666 2.279 1.191 2.279 1.569 0 .378 1.096.662 3.285.855 2.19.192 3.289.284 3.289.284h89.083c12.56 0 23.312 4.471 32.258 13.422 8.952 8.945 13.422 19.696 13.422 32.261V319.77c0 12.563-4.47 23.312-13.422 32.258-8.945 8.948-19.698 13.421-32.258 13.421h-91.357c-2.478 0-4.436.62-5.853 1.855-1.43 1.242-2.382 3.094-2.857 5.564-.476 2.478-.763 4.716-.855 6.714-.092 1.995-.051 4.518.144 7.563.195 3.046.288 4.948.288 5.708 0 2.478.896 4.613 2.707 6.427 1.81 1.807 3.949 2.71 6.427 2.71h91.357c22.648 0 42.018-8.042 58.095-24.133 16.084-16.077 24.126-35.446 24.126-58.095V118.769c-.01-22.651-8.052-42.015-24.133-58.093z"/><path d="M338.047 219.27c0-4.948-1.813-9.233-5.427-12.85L177.302 51.101c-3.616-3.612-7.895-5.424-12.847-5.424s-9.233 1.812-12.85 5.424c-3.615 3.617-5.424 7.904-5.424 12.85v82.226H18.274c-4.952 0-9.235 1.812-12.851 5.424C1.807 155.219 0 159.503 0 164.452v109.635c0 4.949 1.807 9.233 5.424 12.848 3.619 3.61 7.902 5.427 12.851 5.427h127.906v82.225c0 4.945 1.809 9.233 5.424 12.847 3.621 3.617 7.902 5.428 12.85 5.428 4.949 0 9.231-1.811 12.847-5.428L332.62 232.122c3.614-3.621 5.427-7.906 5.427-12.852z"/></g></svg>