<svg id="Слой_1" data-name="Слой 1" xmlns="http://www.w3.org/2000/svg" viewBox="0 0 230.65 22.26"><defs><style>.cls-1{fill:#1a1a1a;}</style></defs><title>logo</title><path class="cls-1" d="M26.61,34.09v-20h-8.2L18,26.89c-.11,4.38-1.2,7.65-4.29,7.65a5,5,0,0,1-2.06-.43V32.4a5,5,0,0,0,2,.37c1.46,0,2.31-1.53,2.49-7.1l.4-13.38h12v21.8Z" transform="translate(-11.7 -12.29)"/><path class="cls-1" d="M45.41,26.28c0,5.08-2.66,8.27-6.91,8.27s-7-3.25-7-8.33,2.74-8.33,7-8.33S45.41,21.13,45.41,26.28Zm-12.09-.06c0,4.13,2,6.74,5.2,6.74s5.09-2.6,5.09-6.71-2-6.74-5.14-6.74S33.33,22.15,33.33,26.22Z" transform="translate(-11.7 -12.29)"/><path class="cls-1" d="M50.07,20V34.09h-1.8V18.35H58V20Z" transform="translate(-11.7 -12.29)"/><path class="cls-1" d="M72,26.28c0,5.08-2.66,8.27-6.91,8.27s-7-3.25-7-8.33,2.74-8.33,7-8.33S72,21.13,72,26.28ZM59.9,26.22c0,4.13,2,6.74,5.2,6.74s5.09-2.6,5.09-6.71-2-6.74-5.14-6.74S59.9,22.15,59.9,26.22Z" transform="translate(-11.7 -12.29)"/><path class="cls-1" d="M79.73,20V34.09h-1.8V20H72.47V18.35H85.19V20Z" transform="translate(-11.7 -12.29)"/><path class="cls-1" d="M97,34.09V20.61L89.07,34.09H86.85V18.35h1.8V31.82l7.94-13.47h2.23V34.09Z" transform="translate(-11.7 -12.29)"/><path class="cls-1" d="M112.36,34.09V20H104V34.09h-1.8V18.35h12V34.09Z" transform="translate(-11.7 -12.29)"/><path class="cls-1" d="M139.39,34.09v-13h-.09l-5.17,13h-1.6l-5.17-13h-.09v13h-1.8V18.35h2.4l5.49,13.57,5.43-13.57h2.4V34.09Z" transform="translate(-11.7 -12.29)"/><path class="cls-1" d="M157.45,34a3.81,3.81,0,0,1-1.43.24c-1.74,0-1.91-1.44-1.91-2.88a6.06,6.06,0,0,1-5.54,3.15c-3,0-4.8-1.65-4.8-4.41s1.84-4.48,5.46-4.87c2.31-.25,3.57-.31,4.29-.83.37-.28.51-.7.51-1.5,0-2.6-1.49-3.4-3.83-3.4s-3.77,1.16-4,3.7h-1.71c.14-3.37,2.29-5.3,5.91-5.3,3.31,0,5.4,1.56,5.4,4.53V31c0,.95,0,1.59,1,1.59a2,2,0,0,0,.69-.09ZM150,26.62c-1.85.27-4.37.74-4.37,3.31,0,1.84,1.31,3,3.37,3a4.76,4.76,0,0,0,5-4.84V25.51C153.45,26.19,152,26.33,150,26.62Z" transform="translate(-11.7 -12.29)"/><path class="cls-1" d="M161.34,20V34.09h-1.8V18.35h9.74V20Z" transform="translate(-11.7 -12.29)"/><path class="cls-1" d="M183,34a3.81,3.81,0,0,1-1.43.24c-1.74,0-1.91-1.44-1.91-2.88a6.06,6.06,0,0,1-5.54,3.15c-3,0-4.8-1.65-4.8-4.41s1.84-4.48,5.46-4.87c2.31-.25,3.57-.31,4.29-.83.37-.28.51-.7.51-1.5,0-2.6-1.49-3.4-3.83-3.4s-3.77,1.16-4,3.7H170c.14-3.37,2.29-5.3,5.91-5.3,3.31,0,5.4,1.56,5.4,4.53V31c0,.95,0,1.59,1,1.59a2,2,0,0,0,.69-.09Zm-7.43-7.38c-1.85.27-4.37.74-4.37,3.31,0,1.84,1.31,3,3.37,3a4.76,4.76,0,0,0,5-4.84V25.51C179,26.19,177.5,26.33,175.54,26.62Z" transform="translate(-11.7 -12.29)"/><path class="cls-1" d="M190.05,17.89c3,0,5.46,1.16,5.46,4.26a3.52,3.52,0,0,1-2.37,3.49v.06A3.43,3.43,0,0,1,196,29.4c0,3.43-2.8,5.14-5.91,5.14-3.86,0-5.89-2.11-6.09-5.39h1.8c.29,2.27,1.43,3.77,4.31,3.77,3.26,0,4-1.84,4-3.46s-.89-2.85-3.14-2.85h-2.46V25.15h2a2.84,2.84,0,0,0,3.11-2.88c0-1.16-.54-2.76-3.63-2.76-2.69,0-3.8,1.44-4,3.4h-1.77C184.57,19.05,187.14,17.89,190.05,17.89Z" transform="translate(-11.7 -12.29)"/><path class="cls-1" d="M208.91,34.09V20.61L201,34.09h-2.23V18.35h1.8V31.82l7.94-13.47h2.23V34.09Z" transform="translate(-11.7 -12.29)"/><path class="cls-1" d="M224.26,34.09V26.68h-8.37v7.41h-1.8V18.35h1.8v6.71h8.37V18.35h1.8V34.09Z" transform="translate(-11.7 -12.29)"/><path class="cls-1" d="M242.34,34a3.81,3.81,0,0,1-1.43.24c-1.74,0-1.91-1.44-1.91-2.88a6.06,6.06,0,0,1-5.54,3.15c-3,0-4.8-1.65-4.8-4.41s1.84-4.48,5.46-4.87c2.31-.25,3.57-.31,4.29-.83.37-.28.51-.7.51-1.5,0-2.6-1.49-3.4-3.83-3.4s-3.77,1.16-4,3.7h-1.71c.14-3.37,2.29-5.3,5.91-5.3,3.31,0,5.4,1.56,5.4,4.53V31c0,.95,0,1.59,1,1.59a2,2,0,0,0,.69-.09Zm-7.43-7.38c-1.85.27-4.37.74-4.37,3.31,0,1.84,1.31,3,3.37,3a4.76,4.76,0,0,0,5-4.84V25.51C238.34,26.19,236.88,26.33,234.91,26.62Z" transform="translate(-11.7 -12.29)"/></svg>